# xmcd CD database file
#
# Track frame offsets:
#	150
#	2547
#	21667
#	40073
#	58570
#	77417
#	95043
#	113871
#	132045
#	149315
#	165675
#	183543
#	203467
#	222867
#	241193
#	261346
#	279438
#	298217
#	317505
#
# Disc length: 4481 seconds
#
# Revision: 0
# Processed by: cddbd v1.5.1PL0 Copyright (c) Steve Scherf et al.
# Submitted via: CDex 1.51
#
DISCID=0d117f13
DTITLE=South Central Cartel - Westurrection
DYEAR=2005
DGENRE=Hip-Hop
TTITLE0=Intro
TTITLE1=Where Da Enemies
TTITLE2=Act Like Ya Know
TTITLE3=Cali Game
TTITLE4=South Cenrtal
TTITLE5=Front Row
TTITLE6=Flash and Cash
TTITLE7=Y-U-Hatin
TTITLE8=The Cartel Wayee
TTITLE9=Damn
TTITLE10=I'll Take Her
TTITLE11=Guess Who's Back
TTITLE12=Yes Sir
TTITLE13=Back On Da Grind
TTITLE14=Westurrection
TTITLE15=Make It Bang
TTITLE16=I'm Feelin U
TTITLE17=Wifey
TTITLE18=Flash and Cash Remix
EXTD=YEAR: 2005.06.03
EXTT0=
EXTT1=
EXTT2=
EXTT3=
EXTT4=
EXTT5=
EXTT6=
EXTT7=
EXTT8=
EXTT9=
EXTT10=
EXTT11=
EXTT12=
EXTT13=
EXTT14=
EXTT15=
EXTT16=
EXTT17=
EXTT18=
PLAYORDER=
